<?xml version="1.0" encoding="utf-8"?><svg xml:space="preserve" viewBox="0 0 100 100" y="0" x="0" xmlns="http://www.w3.org/2000/svg" id="圖層_1" version="1.1" width="182px" height="182px" xmlns:xlink="http://www.w3.org/1999/xlink" style="width:100%;height:100%;background-size:initial;background-repeat-y:initial;background-repeat-x:initial;background-position-y:initial;background-position-x:initial;background-origin:initial;background-image:initial;background-color:rgb(255, 255, 255);background-clip:initial;background-attachment:initial;animation-play-state:paused" ><g class="ldl-scale" style="transform-origin:50% 50%;transform:rotate(0deg) scale(1, 1);animation-play-state:paused" ><path fill="#333" d="M35.2 59.5c-.9.4-1.9.9-2.7 1.4-9.3 5.4-15.9 14.9-17.3 26C15 88.5 16.3 90 18 90h64.2c1.7 0 3-1.4 2.8-3.1-1.4-11.1-8-20.6-17.3-26-.9-.5-1.8-.9-2.7-1.4 8.6-5.6 13.7-16 11.8-27.4-2-11.6-11.7-20.6-23.4-22-.9-.1-1.7-.1-2.6-.2H48.9C34.4 10.7 23 22.5 23 37c0 9.4 4.9 17.7 12.2 22.5z" style="fill:rgb(51, 51, 51);animation-play-state:paused" ></path>
<metadata xmlns:d="https://loading.io/stock/" style="animation-play-state:paused" ><d:name style="animation-play-state:paused" >user</d:name>


<d:tags style="animation-play-state:paused" >people,man,figure,human,account,profile,user,web application</d:tags>


<d:license style="animation-play-state:paused" >by</d:license>


<d:slug style="animation-play-state:paused" >ijqcn8</d:slug></metadata></g><!-- generated by https://loading.io/ --></svg>